<svg xmlns="http://www.w3.org/2000/svg" viewBox="0 0 64 64" fill="none" stroke="#111111">
  <!-- Magnifying Glass Outer Rim -->
  <circle cx="37" cy="25" r="16" stroke-width="2.6" stroke-linecap="round" stroke-linejoin="round" />
  
  <!-- Magnifying Glass Inner Rim -->
  <circle cx="37" cy="25" r="13" stroke-width="1.3" opacity="0.9" />

  <!-- Question Mark (?) -->
  <!-- Top curved arc and stem -->
  <path d="M33.2 20.8 C33.4 18.2 35.2 16.6 37.4 16.6 C39.8 16.6 41.5 18.2 41.5 20.4 C41.5 22.4 40.2 23.6 38.6 24.8 C37.4 25.8 36.9 26.8 36.9 28.5"
        stroke-width="2.4" stroke-linecap="round" stroke-linejoin="round" />
  <!-- Question Mark Dot -->
  <circle cx="36.9" cy="32.4" r="1.3" fill="#111111" stroke="none" />

  <!-- Collar / Connection ring at 45-degree angle -->
  <path d="M22.5 36.5 L26.5 40.5" stroke-width="2.6" stroke-linecap="round" />
  <rect x="22.2" y="37.2" width="4.6" height="2.2" transform="rotate(-45 24.5 38.3)" rx="1" fill="#111111" stroke="none" />

  <!-- Handle -->
  <path d="M23.5 38.5 L12 50 C10.8 51.2 10.8 53.2 12 54.4 C13.2 55.6 15.2 55.6 16.4 54.4 L27.9 42.9" 
        stroke-width="2.4" stroke-linecap="round" stroke-linejoin="round" fill="none" />
</svg>
